<svg width="173" height="135" viewBox="0 0 173 135" fill="none" xmlns="http://www.w3.org/2000/svg">
<path d="M120.311 45.75H111.891L109.551 39.9C107.147 33.8855 101.408 30 94.9292 30H77.0698C70.5926 30 64.8523 33.8855 62.4462 39.9L60.1062 45.75H51.6884C50.5901 45.75 49.7843 46.7822 50.0515 47.8467L50.8953 51.2217C51.0823 51.9727 51.7573 52.5 52.5321 52.5H55.3545C53.4659 54.1495 52.2495 56.5472 52.2495 59.25V66C52.2495 68.2669 53.1157 70.313 54.4995 71.8964V79.5C54.4995 81.9848 56.5147 84 58.9995 84H63.4995C65.9844 84 67.9995 81.9848 67.9995 79.5V75H104V79.5C104 81.9848 106.015 84 108.5 84H113C115.484 84 117.5 81.9848 117.5 79.5V71.8964C118.883 70.3144 119.75 68.2683 119.75 66V59.25C119.75 56.5472 118.533 54.1495 116.646 52.5H119.468C120.243 52.5 120.918 51.9727 121.105 51.2217L121.949 47.8467C122.215 46.7822 121.409 45.75 120.311 45.75ZM70.8022 43.2427C71.8273 40.6805 74.3094 39 77.0698 39H94.9292C97.6897 39 100.172 40.6805 101.197 43.2427L104 50.25H67.9995L70.8022 43.2427ZM63.4995 65.9719C60.7995 65.9719 58.9995 64.1775 58.9995 61.4859C58.9995 58.7944 60.7995 57 63.4995 57C66.1995 57 70.2495 61.0373 70.2495 63.7289C70.2495 66.4205 66.1995 65.9719 63.4995 65.9719ZM108.5 65.9719C105.8 65.9719 101.75 66.4205 101.75 63.7289C101.75 61.0373 105.8 57 108.5 57C111.2 57 113 58.7944 113 61.4859C113 64.1775 111.2 65.9719 108.5 65.9719Z" fill="#433F56"/>
<path d="M129 35.5C129 29.3517 126.688 23.4282 122.524 18.9051C118.359 14.382 112.647 11.5901 106.519 11.0833L106.253 14.3016C111.573 14.7415 116.533 17.1655 120.148 21.0924C123.764 25.0193 125.771 30.1621 125.771 35.5H129Z" fill="#433F56"/>
<path d="M118 34.5C118 31.3631 116.821 28.3409 114.696 26.0332C112.571 23.7255 109.656 22.3011 106.53 22.0425L106.3 24.8201C108.73 25.021 110.995 26.1278 112.646 27.921C114.297 29.7142 115.213 32.0625 115.213 34.5H118Z" fill="#433F56"/>
<path d="M139.811 39.1571C140.317 34.2716 139.804 29.3342 138.304 24.6572C136.803 19.9803 134.349 15.6655 131.096 11.9858C127.842 8.30612 123.861 5.34157 119.403 3.27964C114.945 1.21772 110.108 0.103293 105.197 0.00684493L105.132 3.33709C109.582 3.42448 113.965 4.43435 118.005 6.30281C122.044 8.17127 125.652 10.8577 128.6 14.1921C131.548 17.5265 133.772 21.4365 135.132 25.6746C136.491 29.9127 136.956 34.3868 136.498 38.8139L139.811 39.1571Z" fill="#433F56"/>
<path d="M3.64 115.04C5.90667 117.307 8.17333 118.44 10.44 118.44C11.6133 118.44 12.5467 118.173 13.24 117.64C13.96 117.08 14.32 116.373 14.32 115.52C14.32 114.64 13.8933 113.907 13.04 113.32C12.1867 112.707 11.1467 112.173 9.92 111.72C8.72 111.267 7.52 110.76 6.32 110.2C5.12 109.613 4.09333 108.787 3.24 107.72C2.38667 106.653 1.96 105.36 1.96 103.84C1.96 101.44 2.96 99.3733 4.96 97.64C6.96 95.88 9.33333 95 12.08 95C13.3333 95 14.5467 95.1333 15.72 95.4C16.8933 95.6667 18.0267 96.0533 19.12 96.56L16.4 102.4C15.6533 101.813 14.6267 101.28 13.32 100.8C12.04 100.293 10.9067 100.04 9.92 100.04C8.96 100.04 8.17333 100.28 7.56 100.76C6.97333 101.213 6.68 101.827 6.68 102.6C6.68 103.373 7.10667 104.067 7.96 104.68C8.81333 105.267 9.84 105.787 11.04 106.24C12.2667 106.693 13.48 107.2 14.68 107.76C15.9067 108.293 16.9467 109.093 17.8 110.16C18.6533 111.227 19.08 112.52 19.08 114.04C19.08 116.547 18.08 118.747 16.08 120.64C14.08 122.507 11.7467 123.44 9.08 123.44C7.08 123.44 5.30667 122.96 3.76 122C2.4 121.173 1.44 120.44 0.88 119.8L0.52 119.36L3.64 115.04ZM34.0372 112.88C34.0372 111.04 33.8772 109.813 33.5572 109.2C33.2372 108.587 32.4905 108.28 31.3172 108.28C30.1439 108.28 28.8105 108.747 27.3172 109.68V112.6L27.7572 122L22.3972 123L22.8772 113.28C22.7705 109.707 22.4772 106.507 21.9972 103.68L26.8372 102.64C27.0239 104.187 27.1572 105.693 27.2372 107.16C27.6372 106.627 28.0905 106.107 28.5972 105.6C29.1039 105.067 29.9039 104.48 30.9972 103.84C32.0905 103.173 33.1972 102.84 34.3172 102.84C35.4372 102.84 36.3839 103.2 37.1572 103.92C37.9305 104.64 38.4239 105.627 38.6372 106.88C40.8505 104.187 43.0905 102.84 45.3572 102.84C46.7705 102.84 47.8905 103.32 48.7172 104.28C49.5439 105.213 49.9572 106.493 49.9572 108.12L49.7172 112.6L50.1572 122.2L44.7572 123.2L45.2372 112.88C45.2372 111.04 45.0772 109.813 44.7572 109.2C44.4372 108.587 43.7039 108.28 42.5572 108.28C41.4105 108.28 40.1172 108.72 38.6772 109.6L38.5172 112.6L38.9572 122.2L33.5572 123.2L34.0372 112.88ZM58.5466 123C56.9732 123 55.6799 122.507 54.6666 121.52C53.6799 120.507 53.1866 119.16 53.1866 117.48C53.1866 115.773 53.9599 114.307 55.5066 113.08C57.0532 111.827 58.9332 111.2 61.1466 111.2H63.8666V110.52C63.8666 109.213 63.5999 108.32 63.0666 107.84C62.5332 107.36 61.5332 107.12 60.0666 107.12C59.4532 107.12 58.7199 107.253 57.8666 107.52C57.0399 107.76 56.1066 108.147 55.0666 108.68L53.9066 105.52C55.0532 104.72 56.4399 104 58.0666 103.36C59.7199 102.72 61.0799 102.4 62.1466 102.4C66.3332 102.4 68.4266 104.427 68.4266 108.48V116.32C68.4266 117.813 68.8932 119.48 69.8266 121.32L65.5866 123.12C64.9199 121.84 64.4266 120.693 64.1066 119.68C62.6399 121.893 60.7866 123 58.5466 123ZM60.2266 118.92C61.2932 118.92 62.5066 118.373 63.8666 117.28V114.6C62.4532 114.28 61.3066 114.12 60.4266 114.12C58.7466 114.12 57.9066 114.867 57.9066 116.36C57.9066 117.133 58.1199 117.76 58.5466 118.24C58.9732 118.693 59.5332 118.92 60.2266 118.92ZM72.8566 103.68L77.6966 102.64C77.9366 104.693 78.0966 106.64 78.1766 108.48C80.6032 104.72 82.8832 102.84 85.0166 102.84L84.5766 109.08C83.0299 109.08 81.8032 109.227 80.8966 109.52C80.0166 109.787 79.1099 110.333 78.1766 111.16V112.6L78.6166 122L73.2566 123L73.7366 113.28C73.6299 109.707 73.3366 106.507 72.8566 103.68ZM89.1144 103.64V99.28L94.5144 98.24L93.9944 103.64H98.8344L98.3944 106.92H93.8344L93.6344 115.28C93.6344 116.533 93.7544 117.373 93.9944 117.8C94.2344 118.2 94.6744 118.4 95.3144 118.4C95.9544 118.4 96.8077 118.253 97.8744 117.96L98.1144 120.8C96.3544 122.267 94.8077 123 93.4744 123C92.141 123 91.0477 122.52 90.1944 121.56C89.341 120.573 88.9144 119.293 88.9144 117.72L89.1544 113.24L89.1144 106.92H86.3544L86.7944 103.64H89.1144ZM111.333 95.4C113.893 95.4 115.933 96.1333 117.453 97.6C118.973 99.04 119.733 101.027 119.733 103.56C119.733 106.093 118.773 108.267 116.853 110.08C114.933 111.867 112.586 112.76 109.813 112.76H107.533L108.013 123H102.653L103.133 113.28L102.653 95.4H111.333ZM109.893 99.44H107.933L107.653 108.88H110.373C111.706 108.88 112.733 108.44 113.453 107.56C114.2 106.68 114.573 105.427 114.573 103.8C114.573 100.893 113.013 99.44 109.893 99.44ZM126.125 123C124.551 123 123.258 122.507 122.245 121.52C121.258 120.507 120.765 119.16 120.765 117.48C120.765 115.773 121.538 114.307 123.085 113.08C124.631 111.827 126.511 111.2 128.725 111.2H131.445V110.52C131.445 109.213 131.178 108.32 130.645 107.84C130.111 107.36 129.111 107.12 127.645 107.12C127.031 107.12 126.298 107.253 125.445 107.52C124.618 107.76 123.685 108.147 122.645 108.68L121.485 105.52C122.631 104.72 124.018 104 125.645 103.36C127.298 102.72 128.658 102.4 129.725 102.4C133.911 102.4 136.005 104.427 136.005 108.48V116.32C136.005 117.813 136.471 119.48 137.405 121.32L133.165 123.12C132.498 121.84 132.005 120.693 131.685 119.68C130.218 121.893 128.365 123 126.125 123ZM127.805 118.92C128.871 118.92 130.085 118.373 131.445 117.28V114.6C130.031 114.28 128.885 114.12 128.005 114.12C126.325 114.12 125.485 114.867 125.485 116.36C125.485 117.133 125.698 117.76 126.125 118.24C126.551 118.693 127.111 118.92 127.805 118.92ZM140.435 103.68L145.275 102.64C145.515 104.693 145.675 106.64 145.755 108.48C148.181 104.72 150.461 102.84 152.595 102.84L152.155 109.08C150.608 109.08 149.381 109.227 148.475 109.52C147.595 109.787 146.688 110.333 145.755 111.16V112.6L146.195 122L140.835 123L141.315 113.28C141.208 109.707 140.915 106.507 140.435 103.68ZM167.613 123.4L160.093 112.32V112.6L160.533 122L155.133 123L155.613 113.28L155.133 93.04L160.613 92.04L160.093 111.36L168.093 102.6L171.853 105.16L164.853 111.72L172.173 120.36L167.613 123.4Z" fill="#433F56"/>
</svg>
